<?xml version="1.0" encoding="UTF-8"?><svg id="Camada_2" xmlns="http://www.w3.org/2000/svg" viewBox="0 0 24 24"><g id="Camada_1-2"><g><path d="M12,9.59c-1.17,0-2.12,.95-2.12,2.12s.95,2.12,2.12,2.12,2.12-.95,2.12-2.12-.95-2.12-2.12-2.12Z" style="fill:#f1f1f1;"/><path d="M16.95,7.96c-.12-.3-.25-.51-.47-.73s-.43-.36-.73-.47c-.22-.09-.56-.19-1.18-.22-.67-.03-.87-.04-2.57-.04s-1.9,0-2.57,.04c-.62,.03-.96,.13-1.18,.22-.3,.12-.51,.25-.73,.47s-.36,.43-.47,.73c-.09,.22-.19,.56-.22,1.18-.03,.67-.04,.87-.04,2.57s0,1.9,.04,2.57c.03,.62,.13,.96,.22,1.18,.12,.3,.25,.51,.47,.73,.22,.22,.43,.36,.73,.47,.22,.09,.56,.19,1.18,.22,.67,.03,.87,.04,2.57,.04s1.9,0,2.57-.04c.62-.03,.96-.13,1.18-.22,.3-.12,.51-.25,.73-.47,.22-.22,.36-.43,.47-.73,.09-.22,.19-.56,.22-1.18,.03-.67,.04-.87,.04-2.57s0-1.9-.04-2.57c-.03-.62-.13-.96-.22-1.18Zm-4.95,7.01c-1.8,0-3.26-1.46-3.26-3.26s1.46-3.26,3.26-3.26,3.26,1.46,3.26,3.26-1.46,3.26-3.26,3.26Zm3.39-5.89c-.42,0-.76-.34-.76-.76s.34-.76,.76-.76,.76,.34,.76,.76-.34,.76-.76,.76Z" style="fill:#f1f1f1;"/><path d="M12,0C5.37,0,0,5.37,0,12s5.37,12,12,12,12-5.37,12-12S18.63,0,12,0Zm6.31,14.32c-.03,.68-.14,1.14-.3,1.54-.16,.42-.38,.77-.73,1.12s-.71,.57-1.12,.73c-.4,.16-.87,.26-1.54,.3-.68,.03-.89,.04-2.62,.04s-1.94,0-2.62-.04c-.68-.03-1.14-.14-1.54-.3-.42-.16-.77-.38-1.12-.73-.35-.35-.57-.71-.73-1.12-.16-.4-.26-.87-.3-1.54-.03-.68-.04-.89-.04-2.62s0-1.94,.04-2.62c.03-.68,.14-1.14,.3-1.54,.16-.42,.38-.77,.73-1.12,.35-.35,.71-.57,1.12-.73,.4-.16,.87-.26,1.54-.3,.68-.03,.89-.04,2.62-.04s1.94,0,2.62,.04c.68,.03,1.14,.14,1.54,.3,.42,.16,.77,.38,1.12,.73s.57,.71,.73,1.12c.16,.4,.26,.87,.3,1.54,.03,.68,.04,.89,.04,2.62s0,1.94-.04,2.62Z" style="fill:#f1f1f1;"/></g></g></svg>