<?xml version="1.0" encoding="UTF-8"?><svg id="Camada_2" xmlns="http://www.w3.org/2000/svg" viewBox="0 0 24 24"><g id="Camada_1-2"><path d="M12,0C5.37,0,0,5.37,0,12s5.37,12,12,12,12-5.37,12-12S18.63,0,12,0Zm-3.62,18c-.76-.01-1.53,0-2.29,0-.11,0-.2-.09-.2-.2,0-2.57,0-5.13,0-7.7,0-.11,.09-.19,.19-.19,.78,0,1.55,0,2.33,0,.16,0,.18,.06,.18,.19,0,1.29,0,2.57,0,3.86,0,1.28,0,2.56,0,3.83,0,.16-.03,.22-.2,.21Zm.33-10.22c-.16,.62-.73,1.01-1.43,1.03-.88,.02-1.66-.76-1.53-1.63,.11-.72,.71-1.17,1.51-1.17,1.03,0,1.7,.82,1.46,1.77Zm9.34,10.22c-.75,0-1.5,0-2.25,0-.13,0-.23-.1-.23-.22,0-1.35,0-2.7,0-4.05,0-.39-.03-.78-.2-1.16-.33-.76-1.31-.96-1.98-.47-.48,.35-.66,.83-.66,1.39,0,1.28,0,2.56,0,3.84,0,.17,0,.34,0,.5,.01,.14-.05,.17-.18,.17-.78,0-1.55,0-2.33,0-.14,0-.19-.03-.19-.18,.01-1.15,.02-2.31,.02-3.46,0-1.41,0-2.83-.01-4.24,0-.12,.1-.22,.22-.21,.77,0,1.54,0,2.3,0,.14,0,.18,.04,.17,.18,0,.29,0,.59,0,.93,.05-.06,.07-.07,.09-.09,.71-1.03,1.72-1.34,2.9-1.15,1.36,.21,2.23,1.16,2.46,2.62,.05,.35,.08,.69,.08,1.04,0,1.45,0,2.9,0,4.34,0,.13-.1,.23-.23,.22Z" style="fill:#f1f1f1;"/></g></svg>