<?xml version="1.0" encoding="UTF-8"?>
<svg id="Camada_2" data-name="Camada 2" xmlns="http://www.w3.org/2000/svg" viewBox="0 0 20 20">
  <defs>
    <style>
      .cls-1 {
        fill: #f1f1f1;
      }
    </style>
  </defs>
  <g id="Camada_1-2" data-name="Camada 1">
    <path class="cls-1" d="M10.01,0C4.51,0,.02,4.48,.02,9.98c0,1.76,.46,3.48,1.33,4.99l-1.36,5.02,5.23-1.24c1.46,.8,3.1,1.21,4.77,1.21h0c5.51,0,9.99-4.48,9.99-9.98,0-2.67-1.04-5.18-2.92-7.07C15.19,1.04,12.68,0,10.01,0Zm0,2c2.14,0,4.14,.83,5.65,2.34,1.51,1.51,2.34,3.52,2.34,5.65,0,4.4-3.58,7.99-7.99,7.99-1.33,0-2.65-.34-3.82-.97l-.67-.37-.74,.18-1.97,.46,.48-1.79,.22-.8-.41-.72c-.7-1.21-1.07-2.59-1.07-3.99,0-4.4,3.59-7.98,7.99-7.98Zm-3.53,3.38c-.17,0-.44,.06-.67,.31-.23,.25-.88,.85-.88,2.08s.89,2.42,1.02,2.58c.12,.17,1.73,2.77,4.26,3.77,2.11,.83,2.54,.67,2.99,.62,.46-.04,1.48-.6,1.69-1.19,.21-.58,.21-1.08,.15-1.19-.06-.1-.23-.17-.48-.29-.25-.12-1.48-.73-1.71-.81s-.4-.12-.56,.12c-.17,.25-.64,.81-.79,.98-.15,.17-.29,.19-.54,.06-.25-.13-1.05-.39-2.01-1.24-.74-.66-1.24-1.48-1.39-1.73-.15-.25-.01-.39,.11-.51,.11-.11,.25-.29,.37-.44,.12-.15,.17-.25,.25-.42,.08-.17,.04-.31-.02-.44-.06-.12-.55-1.36-.77-1.85-.19-.41-.38-.42-.56-.43-.15,0-.31,0-.48,0Z"/>
  </g>
</svg>