<?xml version="1.0" encoding="UTF-8"?><svg id="Camada_2" xmlns="http://www.w3.org/2000/svg" viewBox="0 0 240 234"><g id="Layer_1"><g id="Layer_2"><g id="Surfaces"><g id="Drawing_Surface"><g id="Outline_no_shadow"><path d="M42.5,0H197.5c23.5,0,42.5,19,42.5,42.5V191.5c0,23.5-19,42.5-42.5,42.5H42.5c-23.5,0-42.5-19-42.5-42.5V42.5C0,19,19,0,42.5,0Z" style="fill:#300;"/></g></g></g><g id="Outlined_Mnemonics_Logos"><g id="Ai"><path d="M116.3,140.4h-37.2l-7.6,23.5c-.2,.9-1,1.5-1.9,1.4h-18.8c-1.1,0-1.4-.6-1.1-1.8l32.2-92.7c.3-1,.6-2.1,1-3.3,.4-2.1,.6-4.3,.6-6.5-.1-.5,.3-1,.8-1.1h25.9c.8,0,1.2,.3,1.3,.8l36.5,103c.3,1.1,0,1.6-1,1.6h-20.9c-.7,.1-1.4-.4-1.6-1.1l-8.2-23.8Zm-31.4-20.3h25.4c-.6-2.1-1.4-4.6-2.3-7.2-.9-2.7-1.8-5.6-2.7-8.6-1-3.1-1.9-6.1-2.9-9.2s-1.9-6-2.7-8.9c-.8-2.8-1.5-5.4-2.2-7.8h-.2c-.9,4.3-2,8.6-3.4,12.9-1.5,4.8-3,9.8-4.6,14.8-1.4,5.1-2.9,9.8-4.4,14h0Z" style="fill:#ff9a00;"/><path d="M169.8,77c-3.3,.1-6.5-1.2-8.9-3.5-2.3-2.5-3.5-5.8-3.4-9.2-.1-3.4,1.2-6.6,3.6-8.9,2.4-2.3,5.6-3.5,8.9-3.5,3.9,0,6.9,1.2,9.1,3.5,2.2,2.4,3.4,5.6,3.3,8.9,.1,3.4-1.1,6.7-3.5,9.2-2.3,2.4-5.7,3.7-9.1,3.5Zm-11.2,86.8V86.8c0-1,.4-1.4,1.3-1.4h19.8c.9,0,1.3,.5,1.3,1.4v77c0,1.1-.4,1.6-1.3,1.6h-19.6c-1,0-1.5-.6-1.5-1.6Z" style="fill:#ff9a00;"/></g></g></g></g></svg>