<?xml version="1.0" encoding="UTF-8"?><svg id="Camada_2" xmlns="http://www.w3.org/2000/svg" viewBox="0 0 237.58 231.64"><g id="Layer_1"><g id="Layer_2_1_-0"><path id="path2240" d="M42.07,0H195.52c23.26,0,42.07,18.81,42.07,42.07V189.58c0,23.26-18.81,42.07-42.07,42.07H42.07c-23.26,0-42.07-18.81-42.07-42.07V42.07C0,18.81,18.81,0,42.07,0Z" style="fill:#00005b;"/><g id="An"><path id="path2242" d="M96,138.62H59.3l-7.5,23.26c-.19,.93-1.02,1.48-1.85,1.39H31.04c-1.11,0-1.39-.56-1.11-1.76l31.97-91.36c.28-1.02,.55-1.76,1.02-3.06,.37-2.04,.55-4.26,.55-6.39-.09-.46,.28-1.02,.84-1.11h25.76c.83,0,1.2,.28,1.3,.83l36.04,101.28c.28,1.11,0,1.57-1.02,1.57h-20.66c-.65,.09-1.39-.37-1.57-1.11l-8.15-23.54Zm-30.95-19.73h25.11c-.56-2.04-1.39-4.54-2.32-7.14-.93-2.69-1.76-5.56-2.69-8.52-1.02-3.06-1.85-6.02-2.87-9.08-1.02-3.06-1.85-5.93-2.69-8.8-.83-2.78-1.48-5.37-2.22-7.69h-.19c-.93,4.26-1.94,8.52-3.33,12.79-1.48,4.73-2.97,9.73-4.54,14.64-1.3,5-2.78,9.64-4.26,13.81Z" style="fill:#99f;"/><path id="path2244" d="M138.62,161.78v-58.84c0-1.76,0-3.89-.09-6.02-.09-2.32-.09-4.35-.18-6.3-.09-1.94-.18-3.89-.28-5-.09-.28-.09-.65,.18-1.02,.28-.19,.55-.28,1.02-.28h15.94c.55,0,1.11,.09,1.57,.28,.37,.19,.65,.55,.84,1.11,.19,.55,.46,1.39,.65,2.22,.27,1.11,.46,2.22,.55,3.24,3.06-2.69,6.67-4.73,10.47-6.12,3.89-1.3,7.87-1.95,11.95-1.95,3.15,0,6.3,.46,9.27,1.48,7.04,2.32,12.6,7.69,15.01,14.64,1.57,4.08,2.22,9.36,2.22,15.84v46.79c0,1.02-.37,1.39-1.3,1.39l-18.62,.19c-.84,.09-1.49-.37-1.58-1.2v-44.75c-.09-2.97-.65-5.93-1.85-8.62-.93-1.95-2.32-3.8-4.08-4.91-2.04-1.3-4.35-1.85-6.76-1.76-2.6,0-5.19,.37-7.51,1.39-2.22,.93-4.17,2.22-5.93,3.8v54.67c0,1.02-.37,1.39-1.3,1.39h-18.81c-.65,.09-1.3-.37-1.39-1.11-.09-.37-.09-.46,0-.56h0Z" style="fill:#99f;"/></g></g></g></svg>