<?xml version="1.0" encoding="UTF-8"?><svg id="Camada_2" xmlns="http://www.w3.org/2000/svg" xmlns:xlink="http://www.w3.org/1999/xlink" viewBox="0 0 237.58 231.64"><defs><linearGradient id="Gradiente_sem_nome_4" x1="0" y1="115.82" x2="237.58" y2="115.82" gradientUnits="userSpaceOnUse"><stop offset="0" stop-color="#85e31c"/><stop offset=".37" stop-color="#2cc02b"/><stop offset="1" stop-color="#298822"/></linearGradient><linearGradient id="Gradiente_sem_nome_2" x1="40382.47" y1="-45813.23" x2="41428.15" y2="-46851.17" gradientTransform="translate(-1073.33 -1246.6) scale(.03 -.03)" gradientUnits="userSpaceOnUse"><stop offset="0" stop-color="#c6c6c6"/><stop offset=".61" stop-color="#e2e2e2"/><stop offset="1" stop-color="#fefefe"/></linearGradient><linearGradient id="Gradiente_sem_nome_3" x1="41403.19" y1="-47298.51" x2="43929.72" y2="-50010.47" gradientTransform="translate(-1073.33 -1246.6) scale(.03 -.03)" gradientUnits="userSpaceOnUse"><stop offset="0" stop-color="#c6c6c6"/><stop offset=".67" stop-color="#e2e2e2"/><stop offset="1" stop-color="#fefefe"/></linearGradient></defs><g id="Layer_1"><path id="path2240" d="M42.07,0H195.52c23.26,0,42.07,18.81,42.07,42.07V189.58c0,23.26-18.81,42.07-42.07,42.07H42.07c-23.26,0-42.07-18.81-42.07-42.07V42.07C0,18.81,18.81,0,42.07,0Z" style="fill:url(#Gradiente_sem_nome_4);"/><g><path d="M178.14,181.8c1.32-1.35,3.77-3.81,5.31-5.27,1.53-1.46,2.14-1.94,2.7-2.21,.56-.28,1.06-.36,1.45-.29,.39,.07,.66,.29,.86,.55,.19,.26,.3,.56,.4,1.09,.1,.53,.2,1.28,.35,2.35,.15,1.07,.36,2.45,.51,3.66,.16,1.21,.27,2.25,.25,2.96-.01,.7-.15,1.07-.44,1.48-.29,.4-.73,.84-1.13,1.16-.4,.31-.77,.51-1.21,.6-.44,.09-.94,.08-1.55,.03-.6-.05-1.3-.13-1.96-.23-.66-.1-1.27-.21-1.9-.31-.62-.1-1.25-.2-1.97-.31-.72-.11-1.53-.23-2.09-.35-.57-.12-.9-.23-1.12-.41-.23-.18-.35-.44-.43-.72-.08-.27-.12-.56-.07-.88,.05-.32,.21-.68,.37-.98,.16-.3,.34-.55,1.66-1.9h0Z" style="fill:#fefefe; fill-rule:evenodd;"/><path d="M68.83,47.61c4.88-4.48,9.14-5.03,13.19-1.92,63.95,63.95,96.13,95.79,96.13,95.79,4.07,3.76,6.49,7.68,7.27,11.79,.55,3.75,1.04,7.42,1.47,11,.08,.72-.14,1.16-.44,1.81-.95,2.09-2.81,4.25-5.58,6.48-6.32,6.16-9.49,9.24-9.49,9.24-1.87,2.1-6.35,1.07-9.57,.42-7.28-1.47-7.95-.29-13.92-5.92C84.04,112.45,52.12,80.53,52.12,80.53c-3.06-2.75-4.55-4.86-4.48-6.32-.06-.75-.05-1.45,.02-2.1,.25-2.29,1.92-4.73,3.31-6.55,1.03-1.35,2.3-2.74,3.82-4.19,3.83-3.97,8.51-8.56,14.04-13.76h0Z" style="fill:#fefefe; fill-rule:evenodd;"/><path d="M61.17,55.18c-.25,.47-.26,.93-.2,1.38,.06,.45,.18,.89,.37,1.33,.18,.44,.43,.88,.77,1.35,.34,.47,.78,.98,2.4,2.64,1.62,1.66,4.43,4.48,6.84,6.93,2.42,2.44,4.44,4.51,6.76,6.84,2.32,2.33,4.93,4.91,6.41,6.35,1.47,1.44,1.8,1.72,1.96,1.86,.16,.14,.14,.12,2.93-2.7,2.79-2.83,8.39-8.46,11.19-11.28q2.8-2.81,2.8-2.82s-.04-.04-3.56-3.55c-3.52-3.52-10.53-10.52-14.03-14.02q-3.5-3.5-3.68-3.64c-.19-.15-.57-.45-1.02-.73-.45-.28-.96-.55-1.5-.76-.54-.21-1.1-.37-1.7-.46-.6-.09-1.24-.11-1.85-.05s-1.17,.17-1.68,.32c-.51,.15-.95,.33-1.54,.64-.58,.31-1.3,.74-1.96,1.2-.66,.46-1.25,.94-1.8,1.41-.54,.47-1.04,.94-1.67,1.53-.63,.6-1.4,1.33-2.26,2.15-.86,.82-1.8,1.73-2.52,2.42-.72,.7-1.22,1.18-1.47,1.66h0Z" style="fill:url(#Gradiente_sem_nome_2); fill-rule:evenodd;"/><path d="M186.44,166.08c-.52,1.06-1.09,1.97-1.72,2.72-3.49-.22-6.31-.47-8.47-.77-4.04-.19-8.75-2.9-14.13-8.13L94.49,92.05l-15.34,15.51-3.47-3.47,32.35-32.41,72.24,71.93c2.61,2.74,4.32,5.96,5.14,9.65,.93,6.93,1.39,10.39,1.39,10.39,.21,.87,.08,1.68-.37,2.43h0Z" style="fill:url(#Gradiente_sem_nome_3); fill-rule:evenodd;"/></g></g></svg>