<?xml version="1.0" encoding="UTF-8"?><svg id="Camada_2" xmlns="http://www.w3.org/2000/svg" viewBox="0 0 237.58 231.64"><g id="Layer_1"><path id="path2240" d="M42.07,0H195.52c23.26,0,42.07,18.81,42.07,42.07V189.58c0,23.26-18.81,42.07-42.07,42.07H42.07c-23.26,0-42.07-18.81-42.07-42.07V42.07C0,18.81,18.81,0,42.07,0Z" style="fill:#eaeaea;"/><g><path id="path0_fill" d="M95.35,187.16c12.94,0,23.45-10.5,23.45-23.45v-23.45h-23.45c-12.94,0-23.45,10.5-23.45,23.45s10.5,23.45,23.45,23.45Z" style="fill:#0acf83;"/><path id="path1_fill" d="M71.9,116.82c0-12.94,10.5-23.45,23.45-23.45h23.45v46.89h-23.45c-12.94,0-23.45-10.5-23.45-23.45Z" style="fill:#a259ff;"/><path id="path1_fill-2" d="M71.9,69.93c0-12.94,10.5-23.45,23.45-23.45h23.45v46.89h-23.45c-12.94,0-23.45-10.5-23.45-23.45Z" style="fill:#f24e1e;"/><path id="path2_fill" d="M118.79,46.48h23.45c12.94,0,23.45,10.5,23.45,23.45s-10.5,23.45-23.45,23.45h-23.45V46.48Z" style="fill:#ff7262;"/><path id="path3_fill" d="M165.69,116.82c0,12.94-10.5,23.45-23.45,23.45s-23.45-10.5-23.45-23.45,10.5-23.45,23.45-23.45,23.45,10.5,23.45,23.45Z" style="fill:#1abcfe;"/></g></g></svg>