<?xml version="1.0" encoding="UTF-8"?>
<svg id="Camada_2" data-name="Camada 2" xmlns="http://www.w3.org/2000/svg" viewBox="0 0 241 235">
  <defs>
    <style>
      .cls-1 {
        fill: #fff;
      }

      .cls-2 {
        fill: #ef662a;
      }

      .cls-3 {
        fill: #ebebeb;
      }

      .cls-4 {
        fill: #f1f1f1;
        stroke: #6d6d6d;
        stroke-miterlimit: 10;
      }

      .cls-5 {
        fill: #e34e26;
      }
    </style>
  </defs>
  <g id="Camada_2-2" data-name="Camada 2">
    <g id="Surfaces">
      <g id="Drawing_Surface" data-name="Drawing Surface">
        <g id="Outline_no_shadow" data-name="Outline no shadow">
          <path class="cls-4" d="M43,.5H198c23.5,0,42.5,19,42.5,42.5V192c0,23.5-19,42.5-42.5,42.5H43c-23.5,0-42.5-19-42.5-42.5V43C.5,19.5,19.5,.5,43,.5Z"/>
        </g>
      </g>
    </g>
    <g>
      <g>
        <path d="M72.24,31.75h7.73v7.64h7.07v-7.64h7.73v23.13h-7.73v-7.74h-7.07v7.74h-7.73V31.75h0Z"/>
        <path d="M104.94,39.42h-6.81v-7.67h21.34v7.67h-6.81v15.46h-7.73v-15.46h0Z"/>
        <path d="M122.87,31.75h8.06l4.96,8.13,4.95-8.13h8.06v23.13h-7.7v-11.46l-5.32,8.22h-.13l-5.32-8.22v11.46h-7.56V31.75Z"/>
        <path d="M152.75,31.75h7.73v15.48h10.87v7.64h-18.6V31.75Z"/>
      </g>
      <g id="Guides_to_delete" data-name="Guides to delete">
        <g>
          <polygon class="cls-5" points="71.82 189.43 60.73 65.01 182.56 65.01 171.45 189.44 121.61 203.25 71.82 189.43"/>
          <polygon class="cls-2" points="121.64 75.18 121.64 192.69 161.94 181.51 171.44 75.18 121.64 75.18"/>
          <polygon class="cls-1" points="83.42 90.44 87.54 136.59 140.43 136.59 138.65 156.38 121.62 160.98 104.63 156.39 103.49 143.68 88.17 143.68 90.36 168.18 121.62 176.86 152.92 168.18 157.11 121.33 101.49 121.33 100.1 105.7 158.45 105.7 158.5 105.7 159.86 90.44 83.42 90.44"/>
          <g>
            <polygon class="cls-3" points="121.64 90.44 83.42 90.44 87.54 136.59 121.64 136.59 121.64 121.33 101.49 121.33 100.1 105.7 121.64 105.7 121.64 90.44"/>
            <polygon class="cls-3" points="121.64 160.98 121.62 160.98 104.63 156.39 103.49 143.68 88.17 143.68 90.36 168.18 121.62 176.86 121.64 176.85 121.64 160.98"/>
          </g>
        </g>
      </g>
    </g>
  </g>
</svg>