<?xml version="1.0" encoding="UTF-8"?>
<svg id="Camada_2" data-name="Camada 2" xmlns="http://www.w3.org/2000/svg" viewBox="0 0 241 235">
  <defs>
    <style>
      .cls-1 {
        fill: #f1f1f1;
        stroke: #c1c1c1;
        stroke-miterlimit: 10;
      }
    </style>
  </defs>
  <g id="Camada_2-2" data-name="Camada 2">
    <g id="Surfaces">
      <g id="Drawing_Surface" data-name="Drawing Surface">
        <g id="Outline_no_shadow" data-name="Outline no shadow">
          <path class="cls-1" d="M43,.5H198c23.5,0,42.5,19,42.5,42.5V192c0,23.5-19,42.5-42.5,42.5H43c-23.5,0-42.5-19-42.5-42.5V43C.5,19.5,19.5,.5,43,.5Z"/>
        </g>
      </g>
    </g>
    <g>
      <path d="M124.28,175.08c0,9.09-3.77,11.43-9.74,11.43s-8.83-4.29-11.69-9.35l-14.81,8.96c4.29,9.09,12.73,16.63,27.28,16.63,16.11,0,27.15-8.57,27.15-27.41v-62.09h-18.19v61.83Z"/>
      <polygon points="88.04 186.12 88.04 186.12 88.04 186.12 88.04 186.12"/>
      <path d="M191.44,148.84l-4.55-1.95c-7.79-3.38-11.17-5.59-11.17-11.04,0-4.42,3.38-7.79,8.7-7.79s8.57,2.21,11.69,7.79l14.16-9.09c-5.97-10.52-14.29-14.55-25.85-14.55-16.24,0-26.63,10.39-26.63,24.03,0,14.81,8.7,21.82,21.82,27.41l4.55,1.95c8.31,3.64,13.25,5.84,13.25,12.08,0,5.2-4.8,8.96-12.34,8.96-8.96,0-14.03-4.68-17.93-11.04l-14.81,8.57h0c5.32,10.52,16.24,18.58,33.12,18.58s30.14-8.96,30.14-25.33c0-15.2-8.7-21.95-24.16-28.58Z"/>
    </g>
  </g>
</svg>