<?xml version="1.0" encoding="UTF-8"?>
<svg id="Camada_2" data-name="Camada 2" xmlns="http://www.w3.org/2000/svg" viewBox="0 0 240 234">
  <defs>
    <style>
      .cls-1 {
        fill: #001e36;
      }

      .cls-2 {
        fill: #31a8ff;
      }
    </style>
  </defs>
  <g id="Camada_2-2" data-name="Camada 2">
    <g>
      <g id="Surfaces">
        <g id="Drawing_Surface" data-name="Drawing Surface">
          <g id="Outline_no_shadow" data-name="Outline no shadow">
            <path class="cls-1" d="M42.5,0H197.5c23.5,0,42.5,19,42.5,42.5V191.5c0,23.5-19,42.5-42.5,42.5H42.5c-23.5,0-42.5-19-42.5-42.5V42.5C0,19,19,0,42.5,0Z"/>
          </g>
        </g>
      </g>
      <g>
        <path class="cls-2" d="M120.46,169.7H57.06c-1.1,0-1.6-.6-1.6-1.8V65.7c-.1-.7,.4-1.3,1.1-1.4h20c.5-.1,1.1,.3,1.1,.8v84.3h46.2c1,0,1.3,.5,1.1,1.4l-2.9,17.4c0,.5-.3,.9-.6,1.2-.3,.2-.6,.3-1,.3h0Z"/>
        <path class="cls-2" d="M136.46,89.7h17.5c1,0,1.8,.7,2.1,1.6,.4,.7,.7,1.5,.8,2.3,.2,1,.4,2.1,.5,3.1,.1,1.1,.2,2.3,.2,3.6,3-3.5,6.6-6.4,10.7-8.6,4.6-2.5,9.7-3.7,14.9-3.6,.7-.1,1.3,.4,1.4,1.1v19.9c0,.8-.5,1.1-1.6,1.1-6.5-.4-13,.8-18.9,3.4-2,.9-3.9,2.1-5.4,3.7v51c0,1-.4,1.4-1.3,1.4h-19.5c-.8,.1-1.5-.4-1.6-1.2v-55.8c0-2.4,0-4.9-.1-7.5s-.1-5.2-.2-7.8c-.1-2.2-.3-4.4-.6-6.6-.1-.5,.2-1,.7-1.1,.1-.1,.2-.1,.4,0h0Z"/>
      </g>
    </g>
  </g>
</svg>