<?xml version="1.0" encoding="UTF-8"?><svg id="Camada_2" xmlns="http://www.w3.org/2000/svg" viewBox="0 0 240 234"><g id="Layer_1"><g id="Layer_2"><g id="Surfaces"><g id="Photo_Surface"><g id="Outline_no_shadow"><path d="M42.5,0H197.5c23.5,0,42.5,19,42.5,42.5V191.5c0,23.5-19,42.5-42.5,42.5H42.5c-23.5,0-42.5-19-42.5-42.5V42.5C0,19,19,0,42.5,0Z" style="fill:#001e36;"/></g></g></g><g id="Outlined_Mnemonics_Logos"><g id="Ps"><path d="M54,164.1V61.2c0-.7,.3-1.1,1-1.1,1.7,0,3.3,0,5.6-.1,2.4-.1,4.9-.1,7.6-.2,2.7-.1,5.6-.1,8.7-.2,3.1-.1,6.1-.1,9.1-.1,8.2,0,15,1,20.6,3.1,5,1.7,9.6,4.5,13.4,8.2,3.2,3.2,5.7,7.1,7.3,11.4,1.5,4.2,2.3,8.5,2.3,13,0,8.6-2,15.7-6,21.3s-9.6,9.8-16.1,12.2c-6.8,2.5-14.3,3.4-22.5,3.4-2.4,0-4,0-5-.1s-2.4-.1-4.3-.1v32.1c.1,.7-.4,1.3-1.1,1.4h-19.4c-.8,0-1.2-.4-1.2-1.3Zm21.8-84.7v33.6c1.4,.1,2.7,.2,3.9,.2h5.3c3.9,0,7.8-.6,11.5-1.8,3.2-.9,6-2.8,8.2-5.3,2.1-2.5,3.1-5.9,3.1-10.3,.1-3.1-.7-6.2-2.3-8.9-1.7-2.6-4.1-4.6-7-5.7-3.7-1.5-7.7-2.1-11.8-2-2.6,0-4.9,0-6.8,.1-2-.1-3.4,0-4.1,.1h0Z" style="fill:#31a8ff;"/><path d="M192,106.9c-3-1.6-6.2-2.7-9.6-3.4-3.7-.8-7.4-1.3-11.2-1.3-2-.1-4.1,.2-6,.7-1.3,.3-2.4,1-3.1,2-.5,.8-.8,1.8-.8,2.7s.4,1.8,1,2.6c.9,1.1,2.1,2,3.4,2.7,2.3,1.2,4.7,2.3,7.1,3.3,5.4,1.8,10.6,4.3,15.4,7.3,3.3,2.1,6,4.9,7.9,8.3,1.6,3.2,2.4,6.7,2.3,10.3,.1,4.7-1.3,9.4-3.9,13.3-2.8,4-6.7,7.1-11.2,8.9-4.9,2.1-10.9,3.2-18.1,3.2-4.6,0-9.1-.4-13.6-1.3-3.5-.6-7-1.7-10.2-3.2-.7-.4-1.2-1.1-1.1-1.9v-17.4c0-.3,.1-.7,.4-.9,.3-.2,.6-.1,.9,.1,3.9,2.3,8,3.9,12.4,4.9,3.8,1,7.8,1.5,11.8,1.5s6.5-.5,8.3-1.4c1.6-.7,2.7-2.4,2.7-4.2,0-1.4-.8-2.7-2.4-4-1.6-1.3-4.9-2.8-9.8-4.7-5.1-1.8-9.8-4.2-14.2-7.2-3.1-2.2-5.7-5.1-7.6-8.5-1.6-3.2-2.4-6.7-2.3-10.2,0-4.3,1.2-8.4,3.4-12.1,2.5-4,6.2-7.2,10.5-9.2,4.7-2.4,10.6-3.5,17.7-3.5,4.1,0,8.3,.3,12.4,.9,3,.4,5.9,1.2,8.6,2.3,.4,.1,.8,.5,1,.9,.1,.4,.2,.8,.2,1.2v16.3c0,.4-.2,.8-.5,1-.9,.2-1.4,.2-1.8,0Z" style="fill:#31a8ff;"/></g></g></g></g></svg>