<?xml version="1.0" encoding="UTF-8"?><svg id="Camada_1" xmlns="http://www.w3.org/2000/svg" viewBox="0 0 245.5 383.37"><path d="M198.36,383.37c-3.07-1.88-3.98-4.62-3.99-8.18-.03-11.48-.46-22.96,3.39-34.05,2.98-8.58,7.33-16.36,13.29-23.21,15.32-17.6,22.66-38.06,22.49-61.37-.14-19.46,.03-38.91-.05-58.37-.01-2.7-.35-5.52-1.19-8.06-1.96-5.95-7.24-9.2-13.64-8.89-5.8,.28-10.48,4.14-11.99,10.07-.46,1.8-.59,3.68-.78,5.54-.38,3.6-2.71,6.01-5.92,6.03-3.32,.03-5.95-2.56-6.02-6.32-.12-6.86,0-13.72-.05-20.58-.07-10.06-6.14-15.65-16.21-15.01-7.5,.47-12.82,5.75-13,13.28-.18,7.35,.2,14.73-.25,22.06-.13,2.07-1.86,4.74-3.65,5.78-1.43,.83-4.47,.18-6.01-.91-1.29-.92-1.98-3.41-2.04-5.23-.23-7.1,.02-14.22-.13-21.32-.22-10.66-9.06-17-19.33-14.02-5.87,1.7-9.58,6.02-9.82,12.2-.28,7.47-.07,14.97-.3,22.44-.06,1.88-.48,4.27-1.69,5.46-1.28,1.26-3.95,2.23-5.55,1.75-1.77-.52-3.36-2.63-4.35-4.43-.7-1.27-.31-3.17-.31-4.79,.02-41.16,.06-82.32,.04-123.48,0-2.35-.11-4.78-.7-7.04-1.78-6.71-8.19-10.87-15.45-10.31-6.56,.5-12.09,5.78-12.94,12.47-.24,1.85-.25,3.73-.25,5.6-.06,50.26-.11,100.53-.16,150.79,0,1.37,.01,2.74-.05,4.11-.12,2.81-1.49,5.16-4.22,5.38-2.05,.17-4.74-.6-6.23-1.96-2.54-2.32-4.36-5.42-6.47-8.19-6.41-8.44-12.72-16.96-19.26-25.29-6.08-7.75-13.81-12.25-24.04-10.4-7.93,1.44-11.32,7.41-8.62,14.98,.91,2.55,2.18,5.1,3.84,7.22,18.72,23.98,31.48,50.99,40.87,79.74,3.95,12.08,9.98,22.97,18.27,32.74,10.46,12.33,15.4,26.88,15.45,43.07,.01,3.99-.22,7.99,.03,11.97,.22,3.66-.82,6.54-3.78,8.71h-4.49c-3.11-2.07-3.81-5-3.86-8.64-.1-7.95-.26-15.96-1.27-23.83-1.05-8.16-4.5-15.75-9.96-21.85-11.92-13.34-19-29.11-24.47-45.8-8.07-24.61-19.81-47.28-35.65-67.81-4.17-5.41-7.22-11.4-7.81-18.32-1.26-14.91,12.13-26.46,28.29-24.56,10.42,1.23,18.94,5.98,25.52,14.07,4.4,5.41,8.5,11.08,12.75,16.62,.79,1.04,1.66,2.02,3.19,3.87,0-2.47,0-3.9,0-5.33,.05-44.15,.14-88.3,.1-132.45,0-8.67,2.29-16.27,8.94-22.11,7.89-6.93,17.01-8.77,26.83-5.19,9.81,3.57,15.59,10.84,17.18,21.23,.34,2.21,.41,4.47,.41,6.71,.01,25.57-.01,51.14-.03,76.7,0,1.48,0,2.96,0,5.17,6.38-3.3,12.64-4.46,19.19-3.49,6.54,.97,11.93,4.12,16.36,8.94,15.7-15.54,44.49-9.03,47.38,15.53,6.54-3.65,13.43-4.63,20.61-2.62,10.49,2.93,18.36,12.19,18.48,23.73,.27,25.06,.5,50.15-.6,75.17-.89,20.22-9,38.33-22.22,53.63-11.46,13.25-17.18,28.09-16.11,45.57,.15,2.49-.03,4.99,.11,7.48,.19,3.51-1.32,5.96-4.35,7.59h-3.74Z"/><path d="M28.37,107.02V21.01c-3.05,2.98-5.65,5.66-8.4,8.17-3.2,2.91-7.64,2.31-9.54-1.22-1.43-2.64-.91-5.12,1.14-7.19,6.22-6.3,12.44-12.6,18.79-18.76,2.8-2.71,5.83-2.68,8.64,.05,6.34,6.17,12.6,12.43,18.77,18.78,2.57,2.65,2.5,5.98,.21,8.39-2.29,2.41-6.01,2.52-8.67-.1-2.64-2.6-4.98-5.51-7.45-8.29-.34,.24-.67,.49-1.01,.73V106.6c3.01-2.98,5.55-5.58,8.2-8.07,2.79-2.63,6.3-2.78,8.71-.51,2.53,2.37,2.66,5.89-.04,8.66-6.17,6.34-12.43,12.61-18.77,18.78-2.78,2.7-5.85,2.68-8.64-.04-6.34-6.17-12.6-12.43-18.78-18.77-2.56-2.63-2.49-5.98-.2-8.37,2.33-2.44,5.95-2.52,8.66,.08,2.66,2.54,5.11,5.29,8.37,8.69Z"/></svg>