<?xml version="1.0" encoding="UTF-8"?><svg id="Camada_2" xmlns="http://www.w3.org/2000/svg" xmlns:xlink="http://www.w3.org/1999/xlink" viewBox="0 0 369.54 284.92"><defs><linearGradient id="Gradiente_sem_nome_25" x1="84.76" y1="320.79" x2="215.44" y2="62.67" gradientUnits="userSpaceOnUse"><stop offset="0" stop-color="#0038fe"/><stop offset=".13" stop-color="#0044fe"/><stop offset=".48" stop-color="#0062fe"/><stop offset=".78" stop-color="#0074fe"/><stop offset="1" stop-color="#007bff"/></linearGradient><linearGradient id="Gradiente_sem_nome_25-2" x1="55.1" y1="191.77" x2="8.66" y2="164.77" xlink:href="#Gradiente_sem_nome_25"/></defs><g id="Camada_2-2"><g id="base"><g><circle cx="274.47" cy="189.84" r="12.14" style="fill:#3a3a3a;"/><path d="M338.66,.2c-13.3,1.58-24.12,14.35-24.12,27.75V189.82c0,23.06-19.48,41.55-42.88,39.93-20.17-1.4-36.32-18.05-37.14-38.25-.83-20.41,13.61-37.6,32.83-41.07,.03,0,.05,0,.07,0,.75-.14,1.5-.25,2.26-.34,12.69-2.4,22.3-13.55,22.3-26.95,0-2.34-.29-4.6-.85-6.77-.16-.67-.36-1.33-.59-1.98v-.23c-3.66-10.89-13.96-18.74-26.08-18.74-.63,0-1.25,.02-1.87,.07-1.47,.19-2.94,.4-4.39,.66-44.76,7.7-78.82,46.72-78.82,93.69,0,55.34,47.29,99.64,103.66,94.7,49.17-4.31,86.5-46.27,86.5-95.63V27.5c0-16.3-14.18-29.29-30.88-27.3Z" style="fill:#3a3a3a; fill-rule:evenodd;"/></g><path d="M178.47,284.74c-52.14-.32-94.3-42.68-94.3-94.89,0-5.68,.5-11.24,1.45-16.65,0-.05,.01-.1,.03-.15,.14-.78,.29-1.55,.45-2.32,.03-.14,.06-.27,.09-.4,3.05-11.82,13.78-20.56,26.55-20.56,14.92,0,27.07,11.92,27.4,26.76-.18,1.83-.32,3.68-.43,5.53-.15,2.58-.22,5.18-.22,7.79,0,37,14.88,70.51,38.98,94.89Z" style="fill:url(#Gradiente_sem_nome_25); fill-rule:evenodd;"/><path d="M93.57,284.37C41.76,283.67,0,241.46,0,189.49c0-1.79,.05-3.57,.15-5.33v-60.34c-.02-.23-.02-.47-.02-.71,0-15.14,12.28-27.42,27.42-27.42,8.81,0,16.64,4.15,21.64,10.61,.04,.04,.07,.07,.09,.11,3.47,4.51,5.57,10.12,5.67,16.22,.01,.16,.01,.32,.01,.48v66.74c0,36.81,14.73,70.17,38.61,94.52Z" style="fill:url(#Gradiente_sem_nome_25-2); fill-rule:evenodd;"/></g></g></svg>